<?xml version="1.0" encoding="UTF-8"?>
<svg height="16px" viewBox="0 0 16 16" width="16px" xmlns="http://www.w3.org/2000/svg">
    <path d="m 8 1 c -0.550781 0 -1 0.449219 -1 1 v 0.136719 c -2.835938 0.453125 -5.046875 2.664062 -5.5 5.5 h -0.5 c -0.550781 0 -1 0.449219 -1 1 s 0.449219 1 1 1 h 0.5 c 0.453125 2.835937 2.664062 5.046875 5.5 5.5 v 0.5 c 0 0.550781 0.449219 1 1 1 s 1 -0.449219 1 -1 v -0.5 c 2.835938 -0.453125 5.046875 -2.664063 5.5 -5.5 h 0.5 c 0.550781 0 1 -0.449219 1 -1 s -0.449219 -1 -1 -1 h -0.5 c -0.453125 -2.835938 -2.664062 -5.046875 -5.5 -5.5 v -0.136719 c 0 -0.550781 -0.449219 -1 -1 -1 z m 0 3 c 2.210938 0 4 1.789062 4 4 s -1.789062 4 -4 4 s -4 -1.789062 -4 -4 s 1.789062 -4 4 -4 z m 0 2 c -1.105469 0 -2 0.894531 -2 2 s 0.894531 2 2 2 s 2 -0.894531 2 -2 s -0.894531 -2 -2 -2 z m 0 0" fill="#222222"/>
</svg>
